<?xml version="1.0" standalone="no"?>
<!DOCTYPE svg PUBLIC "-//W3C//DTD SVG 20010904//EN"
 "http://www.w3.org/TR/2001/REC-SVG-20010904/DTD/svg10.dtd">
<svg version="1.0" xmlns="http://www.w3.org/2000/svg"
 width="100.000000pt" height="100.000000pt" viewBox="0 0 100.000000 100.000000"
 preserveAspectRatio="xMidYMid meet">

<g transform="translate(0.000000,100.000000) scale(0.100000,-0.100000)"
fill="#000000" stroke="none">
<path d="M244 891 c-53 -33 -79 -78 -79 -142 0 -46 5 -63 28 -93 36 -47 75
-66 132 -66 57 0 96 19 132 66 23 31 28 47 28 94 0 47 -5 63 -28 94 -16 20
-41 43 -57 51 -41 21 -118 19 -156 -4z m167 -47 c57 -55 56 -134 -2 -190 -26
-25 -38 -29 -84 -29 -46 0 -58 4 -84 29 -56 53 -59 129 -9 184 32 34 56 42
106 38 31 -3 52 -12 73 -32z"/>
<path d="M316 843 c-3 -3 -6 -29 -5 -57 0 -44 4 -54 30 -75 39 -31 60 -15 24
19 -19 18 -25 34 -25 66 0 41 -10 61 -24 47z"/>
<path d="M627 792 c-9 -10 -17 -26 -17 -35 0 -11 -8 -17 -24 -17 -34 0 -42
-18 -13 -29 34 -13 68 -107 74 -202 5 -68 2 -84 -20 -133 l-26 -56 -72 0 -71
0 6 31 c3 17 6 44 6 59 0 15 9 37 20 50 24 28 25 43 4 64 -23 24 -235 23 -259
0 -9 -9 -15 -24 -13 -33 2 -10 -13 -25 -43 -43 -35 -20 -53 -40 -73 -80 -31
-62 -34 -98 -8 -98 13 0 22 -12 31 -39 14 -47 68 -98 114 -106 49 -10 112 11
141 45 l25 30 119 0 c117 0 119 0 130 -25 15 -33 72 -60 107 -51 42 11 75 50
75 90 0 19 6 36 12 38 17 6 -16 79 -48 109 -16 15 -24 34 -24 56 0 58 -30 184
-56 236 -23 45 -24 50 -9 61 12 8 16 23 13 51 -3 39 -4 40 -44 43 -29 2 -45
-2 -57 -16z m73 -32 c0 -15 -7 -20 -24 -20 -14 0 -28 5 -31 10 -10 16 4 30 31
30 17 0 24 -5 24 -20z m-18 -98 c32 -58 54 -136 63 -224 5 -48 12 -71 27 -85
25 -22 51 -71 44 -82 -3 -4 -43 -16 -88 -25 -120 -25 -334 -18 -482 17 -60 14
-113 30 -118 35 -17 17 1 64 37 98 41 38 99 54 200 54 l76 0 -7 -80 -7 -80 96
0 95 0 20 33 c61 101 60 214 -3 370 -5 11 -3 17 6 17 8 0 26 -21 41 -48z
m-202 -167 c0 -12 -19 -15 -115 -15 -96 0 -115 3 -115 15 0 12 19 15 115 15
96 0 115 -3 115 -15z"/>
</g>
</svg>
